# xmcd CD database file
#
# Track frame offsets:
#	150
#	13776
#	25790
#	39652
#	52710
#	66780
#	81534
#	94302
#	107616
#	120901
#	135297
#	147450
#	162666
#	175361
#	186960
#	199169
#	211847
#	225822
#	239235
#	253132
#	264099
#	275388
#	288145
#	302975
#	316328
#	329484
#
# Disc length: 4555 seconds
#
# Revision: 0
# Processed by: cddbd v1.5.2PL0 Copyright (c) Steve Scherf et al.
# Submitted via: CDex 1.70beta1
#
DISCID=7511c91a
DTITLE=Humphrey Lyttleton - Humph Experiments
DYEAR=1900
DGENRE=Jazz
TTITLE0=Take A Note From The South - Bell-Lyttelton Jazz Nine
TTITLE1=Open House - Bell-Lyttelton Jazz Nine
TTITLE2=Apples Be Ripe - Bell-Lyttelton Jazz Twelve
TTITLE3=Midnight Creep - Bell-Lyttelton Jazz Ten
TTITLE4=Small Hour Fantasy - Bell-Lyttelton Jazz Nine
TTITLE5=Friendless Blues - Grant-Lyttelton Paseo Jazz Band
TTITLE6=Original Jelly Roll Blues - Grant-Lyttelton Paseo Jazz Band
TTITLE7=Fat Tuesday - Grant-Lyttelton Paseo Jazz Band
TTITLE8=Mam'selle Josephine - Grant-Lyttelton Paseo Jazz Band
TTITLE9=Original Jelly Roll Blues - Grant-Lyttelton Paseo Jazz Band
TTITLE10=King Porter Stomp - Grant-Lyttelton Paseo Jazz Band
TTITLE11=London Blues - Grant-Lyttelton Paseo Jazz Band
TTITLE12=Mike's Tangana - Grant-Lyttelton Paseo Jazz Band
TTITLE13=Muskrat Ramble - Lyttelton, Humphrey Paseo Jazz Band
TTITLE14=Mam'selle Josephine - Lyttelton, Humphrey Paseo Jazz Band
TTITLE15=Hoppin' Mad - Lyttelton, Humphrey Band and Ade Monsbourgh
TTITLE16=Don't Monkey With It - Lyttelton, Humphrey Band and Ade Monsbourgh
TTITLE17=Forgotten Woman's Blues - Lyttelton, Humphrey Band and Ade Monsbourgh
TTITLE18=Sweet Muscatel - Lyttelton, Humphrey Band and Ade Monsbourgh
TTITLE19=Get It - Lyttelton, Humphrey Band and Ade Monsbourgh
TTITLE20=Stay With It - Lyttelton, Humphrey Band and Ade Monsbourgh
TTITLE21=Ugly Duckling - Lyttelton, Humphrey Band and Ade Monsbourgh
TTITLE22=Hook Line And Sinker - Monsbourgh, 'Lazy' Ade Late Hour Boys and Humphrey Lyttelton
TTITLE23=Backroom Joys - Monsbourgh, 'Lazy' Ade Late Hour Boys and Humphrey Lyttelton
TTITLE24=Hullo Jim Eadie - Monsbourgh, 'Lazy' Ade Late Hour Boys
TTITLE25=Turn Up A Card - Monsbourgh, 'Lazy' Ade Late Hour Boys
EXTD=
EXTT0=
EXTT1=
EXTT2=
EXTT3=
EXTT4=
EXTT5=
EXTT6=
EXTT7=
EXTT8=
EXTT9=
EXTT10=
EXTT11=
EXTT12=
EXTT13=
EXTT14=
EXTT15=
EXTT16=
EXTT17=
EXTT18=
EXTT19=
EXTT20=
EXTT21=
EXTT22=
EXTT23=
EXTT24=
EXTT25=
PLAYORDER=
